Haven't seen it uploaded here so I'll do it.

General
Complete name                            : C:UsersDownloadsmoviesI Love The Beach . Com (ILTB) (High Quality)HDsb06v1_11_720.wmv
Format                                   : Windows Media
File size                                : 81.2 MiB
Duration                                 : 2mn 12s
Overall bit rate mode                    : Variable
Overall bit rate                         : 5 157 Kbps
Maximum Overall bit rate                 : 6 154 Kbps
Encoded date                             : UTC 2007-03-01 14:08:44.812

Video
ID                                       : 2
Format                                   : VC-1
Format profile                           : MP@HL
Codec ID                                 : WMV3
Codec ID/Info                            : Windows Media Video 9
Codec ID/Hint                            : WMV3
Description of the codec                 : Windows Media Video 9 - Professional
Duration                                 : 2mn 12s
Bit rate mode                            : Variable
Bit rate                                 : 5 000 Kbps
Width                                    : 1 280 pixels
Height                                   : 720 pixels
Display aspect ratio                     : 16:9
Frame rate                               : 25.000 fps
Bit depth                                : 8 bits
Scan type                                : Progressive
Compression mode                         : Lossy
Bits/(Pixel*Frame)                       : 0.217
Stream size                              : 78.7 MiB (97%)
Language                                 : English (GB)

Audio
ID                                       : 1
Format                                   : WMA
Format version                           : Version 2
Codec ID                                 : 161
Codec ID/Info                            : Windows Media Audio
Description of the codec                 : Windows Media Audio 9.2 - 128 kbps, 44 kHz, stereo 2-pass CBR
Duration                                 : 2mn 12s
Bit rate mode                            : Constant
Bit rate                                 : 128 Kbps
Channel(s)                               : 2 channels
Sampling rate                            : 44.1 KHz
Bit depth                                : 16 bits
Stream size                              : 2.02 MiB (2%)
Language                                 : English (GB)